<svg width="18" height="18" viewBox="0 0 18 18" fill="none"
                                         xmlns="http://www.w3.org/2000/svg">
                                        <path
                                            d="M16.3637 8.18193V13.9092C16.3637 15.2648 15.2648 16.3637 13.9092 16.3637H4.09102V16.3637C2.73542 16.3637 1.63647 15.2648 1.63647 13.9092V13.9092V4.09102V4.09102C1.63647 2.73542 2.73542 1.63647 4.09102 1.63647H9.00011"
                                            stroke="#91929A" stroke-width="1.5" stroke-linecap="round"
                                            stroke-linejoin="round"/>
                                        <path
                                            d="M1.63647 11.4546H5.22175V11.4546C5.53138 11.4546 5.81448 11.6294 5.9532 11.9062L6.31893 12.6385V12.6385C6.45755 12.9159 6.74109 13.0911 7.0512 13.091H10.9482V13.091C11.2583 13.0911 11.5419 12.9159 11.6805 12.6385L12.0462 11.907V11.907C12.1848 11.6296 12.4684 11.4544 12.7785 11.4546H16.3637"
                                            stroke="#91929A" stroke-width="1.5" stroke-linecap="round"
                                            stroke-linejoin="round"/>
                                        <path
                                            d="M12.3855 3.33582V3.33582C10.5196 3.54716 9.10929 5.12504 9.10791 7.00292V7.2361V7.2361C9.91892 6.25911 11.116 5.68478 12.3855 5.66355V6.89573V6.89573C12.3855 7.15374 12.5945 7.36298 12.8526 7.36307C12.9574 7.36311 13.0592 7.3279 13.1415 7.2631L16.1917 4.85355V4.85355C16.3871 4.69997 16.421 4.41707 16.2675 4.22167C16.2673 4.22148 16.2672 4.22129 16.267 4.22109V4.22109C16.2449 4.19322 16.2196 4.16797 16.1917 4.14582L13.1415 1.73709V1.73709C12.9397 1.57713 12.6464 1.6111 12.4864 1.81298C12.4209 1.89567 12.3853 1.99813 12.3855 2.10364L12.3855 3.33582Z"
                                            stroke="#91929A" stroke-width="1.5" stroke-linecap="round"
                                            stroke-linejoin="round"/>
                                    </svg>