<svg width="18" height="18" viewBox="0 0 18 18" fill="none"
                                         xmlns="http://www.w3.org/2000/svg">
                                        <path
                                            d="M10.5912 7.40901C11.4699 8.28769 11.4699 9.71231 10.5912 10.591C9.71255 11.4697 8.28793 11.4697 7.40925 10.591C6.53057 9.71231 6.53057 8.28769 7.40925 7.40901C8.28793 6.53033 9.71255 6.53033 10.5912 7.40901Z"
                                            stroke="#91929A" stroke-width="1.5" stroke-linecap="round"
                                            stroke-linejoin="round"/>
                                        <path
                                            d="M11.5642 1.90798L12.0889 2.08258C12.5695 2.24278 12.8944 2.69278 12.8944 3.19948V3.95278C12.8944 4.59358 13.4056 5.11648 14.0464 5.12998L14.8006 5.14618C15.2371 5.15518 15.6331 5.40628 15.8284 5.79688L16.0759 6.29188C16.3027 6.74548 16.2136 7.29268 15.8554 7.65088L15.3226 8.18368C14.8699 8.63638 14.8618 9.36808 15.3046 9.83068L15.8266 10.3761C16.129 10.692 16.2316 11.1483 16.093 11.5632L15.9184 12.0879C15.7582 12.5685 15.3082 12.8934 14.8015 12.8934H14.0482C13.4074 12.8934 12.8845 13.4046 12.871 14.0454L12.8548 14.7996C12.8458 15.2361 12.5947 15.6321 12.2041 15.8274L11.7091 16.0749C11.2555 16.3017 10.7083 16.2126 10.3501 15.8544L9.81734 15.3216C9.36464 14.8689 8.63294 14.8608 8.17034 15.3036L7.62494 15.8256C7.30904 16.128 6.85274 16.2306 6.43784 16.092L5.91314 15.9174C5.43254 15.7572 5.10764 15.3072 5.10764 14.8005V14.0472C5.10764 13.4064 4.59644 12.8835 3.95564 12.87L3.20144 12.8538C2.76494 12.8448 2.36894 12.5937 2.17364 12.2031L1.92614 11.7081C1.69934 11.2545 1.78844 10.7073 2.14664 10.3491L2.67944 9.81628C3.13214 9.36358 3.14024 8.63188 2.69744 8.16928L2.17544 7.62388C1.87214 7.30708 1.76954 6.84988 1.90814 6.43588L2.08274 5.91118C2.24294 5.43058 2.69294 5.10568 3.19964 5.10568H3.95294C4.59374 5.10568 5.11664 4.59448 5.13014 3.95368L5.14634 3.19948C5.15714 2.76298 5.40734 2.36698 5.79794 2.17168L6.29294 1.92418C6.74654 1.69738 7.29374 1.78648 7.65194 2.14468L8.18474 2.67748C8.63744 3.13018 9.36914 3.13828 9.83174 2.69548L10.3771 2.17348C10.693 1.87198 11.1502 1.76938 11.5642 1.90798V1.90798Z"
                                            stroke="#91929A" stroke-width="1.5" stroke-linecap="round"
                                            stroke-linejoin="round"/>
                                    </svg>